<svg width="359" height="175" viewBox="0 0 359 175" fill="none" xmlns="http://www.w3.org/2000/svg">
<path d="M133.637 14.8602C131.027 12.5302 115.677 0.910156 69.1466 0.910156C22.6166 0.910156 7.26656 12.5402 4.64656 14.8802C2.15656 17.1102 0.726562 20.3102 0.726562 23.6602V108.97C0.726562 121.33 6.24656 132.9 15.8666 140.7C16.8766 141.51 17.9066 142.26 18.9166 142.94L62.6066 172.05C64.5966 173.37 66.8666 174.04 69.1466 174.04C71.4266 174.04 73.6966 173.38 75.6866 172.05L119.377 142.94C123.977 139.88 127.847 135.98 130.877 131.35L131.077 131.05C135.327 124.45 137.577 116.81 137.577 108.96V23.6501C137.577 20.3101 136.147 17.1102 133.647 14.8602H133.637ZM133.617 108.96C133.617 116.05 131.587 122.95 127.757 128.89L127.567 129.18C124.837 133.36 121.337 136.88 117.187 139.64L73.4966 168.75C70.8566 170.51 67.4366 170.51 64.7966 168.75L21.1066 139.64C20.1966 139.03 19.2666 138.35 18.3566 137.62C9.66656 130.57 4.68656 120.13 4.68656 108.96V23.6501C4.68656 21.4301 5.63656 19.3002 7.28656 17.8202C9.70656 15.6602 24.0766 4.86015 69.1466 4.86015C114.217 4.86015 128.577 15.6502 131.007 17.8202C132.667 19.3102 133.607 21.4302 133.607 23.6602V108.97L133.617 108.96Z" fill="white"/>
<path d="M69.1547 10.7207C24.4947 10.7207 11.7347 21.7107 11.2147 22.1707C10.7947 22.5407 10.5547 23.0807 10.5547 23.6407V108.951C10.5547 118.341 14.7347 127.121 22.0247 133.031C22.7847 133.641 23.5747 134.221 24.3647 134.751L68.0547 163.861C68.7147 164.301 69.5847 164.301 70.2447 163.861L113.935 134.751C117.435 132.421 120.365 129.461 122.665 125.941L122.815 125.721C126.045 120.711 127.745 114.911 127.745 108.951V23.6407C127.745 23.0807 127.505 22.5407 127.085 22.1707C126.565 21.7007 113.805 10.7207 69.1447 10.7207H69.1547ZM123.795 25.7307V59.4907H71.1247V14.6807C104.085 14.9307 118.385 21.4107 122.825 24.0307C123.425 24.3907 123.795 25.0307 123.795 25.7307ZM71.1247 128.001C71.8847 126.331 75.8147 118.611 83.2347 118.611C87.0347 118.611 89.3647 121.911 92.0747 125.731C95.0247 129.911 98.3747 134.641 104.365 134.641C105.375 134.641 106.345 134.571 107.285 134.431L71.1347 158.511V127.981L71.1247 128.001ZM71.1247 63.4407H123.795V99.6807H71.1247V63.4407ZM14.5047 25.7307C14.5047 25.0307 14.8747 24.3807 15.4747 24.0307C19.9347 21.4007 34.2247 14.9307 67.1747 14.6807V25.6507C60.0347 27.4707 49.3247 31.9407 40.3247 39.2807C39.4647 40.0107 19.2647 57.4807 19.2647 84.3407V124.281C16.1947 119.831 14.5047 114.511 14.5047 108.951V25.7307ZM24.5147 129.961C24.0647 129.601 23.6347 129.221 23.2147 128.831V84.3407C23.2147 59.6007 42.2847 42.8007 42.8647 42.3007C50.4847 36.0907 60.1047 31.7007 67.1647 29.7407V34.6107C60.9247 36.4507 52.2747 40.5807 45.6747 46.2407C30.2047 59.5407 27.8947 77.0207 27.8947 86.2607H31.8447C31.8447 77.7007 33.9747 61.5107 48.2547 49.2407C53.9747 44.3207 61.5647 40.5807 67.1647 38.7507V43.6507C63.8247 44.8707 59.1147 47.2307 56.0947 49.2507C46.9547 55.3407 36.4747 65.3807 36.4747 89.2207H40.4247C40.4247 67.3907 49.4547 58.4307 58.2847 52.5407C60.6647 50.9607 64.2747 49.0907 67.1647 47.8907V52.9907C63.7647 54.5407 58.9147 57.4507 55.8747 60.1707C44.9947 69.9007 44.9947 83.2707 44.9947 92.1207H48.9447C48.9447 83.4907 48.9447 71.6607 58.5047 63.1207C60.7447 61.1207 64.2547 58.8907 67.1647 57.3907V64.3107C56.2247 70.4007 55.2547 83.9007 55.2147 84.4907V84.5507V150.571L26.5547 131.471C25.8647 131.011 25.1747 130.511 24.5147 129.971V129.961ZM59.1147 153.161C59.1147 153.111 59.1347 153.061 59.1447 153.001L59.1647 152.851V84.6807C59.2347 83.8907 60.1947 74.3507 67.1647 69.0307V158.531L61.0147 154.431L59.1147 153.171V153.161ZM119.625 123.371L119.565 123.461C118.765 124.331 112.615 130.691 104.355 130.691C100.415 130.691 98.0347 127.331 95.2947 123.451C92.3847 119.331 89.0747 114.661 83.2347 114.661C77.3947 114.661 73.7147 117.691 71.1247 120.721V103.621H123.795V108.951C123.795 114.061 122.355 119.041 119.625 123.371Z" fill="white"/>
<path d="M95.4897 46.5309V46.8709H99.4397V46.5309H114.73V26.7309L113.16 26.4009C112.79 26.3209 103.95 24.5109 98.8897 28.6009C98.3997 29.0009 97.9597 29.4309 97.5697 29.9109C97.2697 29.5409 96.9297 29.2009 96.5497 28.8809C91.7597 24.8409 82.8297 26.2109 81.8297 26.3809L80.1797 26.6609V46.5309H95.4697H95.4897ZM99.4397 36.4409C99.4397 34.3009 100.07 32.7409 101.38 31.6809C103.78 29.7309 108.12 29.7309 110.78 30.0309V42.5809H99.4397V36.4509V36.4409ZM94.0097 31.9009C95.0197 32.7509 95.4897 33.8609 95.4897 35.4009H95.5297C95.4997 35.7409 95.4897 36.0909 95.4897 36.4409V42.5709H84.1497V30.0809C87.0097 29.8409 91.6697 29.9209 94.0097 31.9009Z" fill="white"/>
<path d="M112.76 50.2207H82.1797V54.1707H112.76V50.2207Z" fill="white"/>
<path d="M86.8731 67.75C80.5731 67.75 75.4531 72.87 75.4531 79.17C75.4531 85.47 80.5731 90.59 86.8731 90.59C93.1731 90.59 98.2931 85.47 98.2931 79.17C98.2931 72.87 93.1731 67.75 86.8731 67.75ZM86.8731 86.64C82.7531 86.64 79.4031 83.29 79.4031 79.17C79.4031 75.05 82.7531 71.7 86.8731 71.7C90.9931 71.7 94.3431 75.05 94.3431 79.17C94.3431 83.29 90.9931 86.64 86.8731 86.64Z" fill="white"/>
<path d="M106.904 109.25C103.144 109.25 100.094 112.31 100.094 116.06C100.094 119.81 103.154 122.87 106.904 122.87C110.654 122.87 113.714 119.81 113.714 116.06C113.714 112.31 110.654 109.25 106.904 109.25ZM106.904 118.93C105.324 118.93 104.044 117.65 104.044 116.07C104.044 114.49 105.324 113.21 106.904 113.21C108.484 113.21 109.764 114.49 109.764 116.07C109.764 117.65 108.484 118.93 106.904 118.93Z" fill="white"/>
<path d="M109.935 73.8111C106.765 72.3611 103.495 70.8711 99.625 70.8711V74.8211C102.635 74.8211 105.385 76.0811 108.295 77.4111C111.615 78.9311 115.055 80.5011 119.305 80.5011V76.5511C115.915 76.5511 113.015 75.2211 109.935 73.8211V73.8111Z" fill="white"/>
<path d="M99.625 77.9395V81.8895C102.635 81.8895 105.385 83.1495 108.295 84.4795C111.615 85.9995 115.055 87.5695 119.305 87.5695V83.6194C115.915 83.6194 113.015 82.2895 109.935 80.8895C106.765 79.4395 103.495 77.9495 99.625 77.9495V77.9395Z" fill="white"/>
<path d="M99.625 84.4492V88.3992C102.635 88.3992 105.385 89.6592 108.295 90.9892C111.615 92.5092 115.055 94.0792 119.305 94.0792V90.1292C115.915 90.1292 113.015 88.7992 109.935 87.3992C106.765 85.9492 103.495 84.4592 99.625 84.4592V84.4492Z" fill="white"/>
<path d="M23.2034 55.5804C24.4034 45.1904 28.7134 41.7804 29.8534 41.0404C31.1934 40.8604 32.4934 40.4104 33.6334 39.7004C34.5034 39.1604 35.3834 38.5104 36.2334 37.7704C36.3134 37.7004 36.3834 37.6204 36.4534 37.5404C44.3034 31.0004 52.9034 26.2504 62.0534 23.4104L62.7934 23.1804L61.6234 19.4004L60.8834 19.6304C50.7834 22.7604 41.3334 28.0804 32.7834 35.4504C32.3634 35.7804 31.9434 36.0704 31.5334 36.3304C30.0134 37.2704 27.9334 37.4304 26.2134 36.7204C25.1934 36.3004 23.8834 35.4004 23.4334 33.5204C22.4234 29.2904 25.7234 27.5304 27.0834 27.2004C27.9534 26.9904 28.7434 27.1004 29.3234 27.4904C29.7834 27.8104 30.0734 28.3004 30.1534 28.9004C30.2534 29.7004 29.9934 29.8904 29.9134 29.9604C29.5934 30.1904 29.0834 30.2104 28.8134 30.1604C28.2934 29.4804 27.3634 29.1904 26.5234 29.5204C25.5034 29.9204 25.0034 31.0604 25.3934 32.0804C26.0934 33.8904 28.5434 34.4604 30.4934 33.9704C33.0134 33.3304 34.4134 31.1504 34.0634 28.4204C33.8434 26.7004 32.9534 25.2204 31.5634 24.2504C30.0534 23.2104 28.1334 22.8904 26.1634 23.3604C21.9334 24.3704 18.1934 28.6004 19.5934 34.4404C20.2534 37.1804 22.0734 39.2904 24.7234 40.3804C24.7334 40.3804 24.7434 40.3804 24.7534 40.3904C22.5934 42.9804 20.1534 47.4904 19.2734 55.1104L23.2034 55.5704V55.5804Z" fill="white"/>
<path d="M157 59.4909L167.68 25.6309H175.98L186.66 59.4909H180.83L171.14 29.1109H172.41L162.84 59.4909H157.01H157ZM162.95 52.1508V46.8609H180.73V52.1508H162.95Z" fill="white"/>
<path d="M201.072 60.2004C198.732 60.2004 196.702 59.6104 194.962 58.4404C193.222 57.2604 191.872 55.6604 190.922 53.6404C189.962 51.6204 189.492 49.3404 189.492 46.8004C189.492 44.2604 189.972 41.9404 190.942 39.9204C191.902 37.9104 193.272 36.3104 195.042 35.1504C196.812 33.9804 198.902 33.4004 201.302 33.4004C203.702 33.4004 205.742 33.9804 207.382 35.1504C209.022 36.3204 210.262 37.9104 211.112 39.9404C211.962 41.9704 212.382 44.2504 212.382 46.8104C212.382 49.3704 211.962 51.6104 211.112 53.6404C210.262 55.6704 209.002 57.2704 207.322 58.4504C205.642 59.6304 203.562 60.2104 201.092 60.2104L201.072 60.2004ZM201.942 55.1204C203.462 55.1204 204.692 54.7704 205.622 54.0704C206.552 53.3704 207.232 52.4004 207.672 51.1404C208.102 49.8904 208.322 48.4304 208.322 46.7904C208.322 45.1504 208.102 43.6704 207.672 42.4304C207.242 41.1804 206.572 40.2104 205.662 39.5104C204.752 38.8104 203.572 38.4604 202.132 38.4604C200.612 38.4604 199.352 38.8304 198.372 39.5804C197.382 40.3204 196.652 41.3304 196.182 42.5904C195.712 43.8504 195.472 45.2504 195.472 46.7904C195.472 48.3304 195.702 49.7504 196.162 51.0104C196.622 52.2704 197.332 53.2704 198.292 54.0104C199.252 54.7504 200.462 55.1204 201.942 55.1204ZM207.612 70.7804V51.9204H208.322V34.0904H213.332V70.7804H207.622H207.612Z" fill="white"/>
<path d="M219.862 59.4909V25.6309H225.572V41.6709H224.862V59.5009H219.852L219.862 59.4909ZM232.112 60.2009C229.632 60.2009 227.562 59.6109 225.882 58.4409C224.202 57.2609 222.942 55.6609 222.092 53.6309C221.242 51.6009 220.822 49.3209 220.822 46.8009C220.822 44.2809 221.242 41.9608 222.092 39.9308C222.942 37.9008 224.182 36.3109 225.822 35.1409C227.462 33.9709 229.492 33.3909 231.902 33.3909C234.312 33.3909 236.382 33.9709 238.142 35.1409C239.902 36.3109 241.272 37.9009 242.242 39.9109C243.212 41.9209 243.702 44.2208 243.702 46.7908C243.702 49.3608 243.222 51.6109 242.272 53.6309C241.312 55.6509 239.972 57.2508 238.232 58.4308C236.492 59.6108 234.452 60.1909 232.122 60.1909L232.112 60.2009ZM231.242 55.1208C232.712 55.1208 233.932 54.7508 234.892 54.0108C235.852 53.2708 236.562 52.2708 237.022 51.0108C237.482 49.7508 237.712 48.3408 237.712 46.7908C237.712 45.2408 237.482 43.8509 237.002 42.5909C236.532 41.3309 235.802 40.3209 234.812 39.5809C233.822 38.8409 232.572 38.4609 231.052 38.4609C229.612 38.4609 228.432 38.8108 227.522 39.5108C226.612 40.2108 225.942 41.1808 225.512 42.4308C225.082 43.6808 224.862 45.1308 224.862 46.7908C224.862 48.4508 225.072 49.8909 225.512 51.1409C225.942 52.3909 226.622 53.3709 227.562 54.0709C228.502 54.7709 229.722 55.1208 231.242 55.1208Z" fill="white"/>
<path d="M260.099 60.2006C257.559 60.2006 255.339 59.6306 253.439 58.4806C251.539 57.3406 250.069 55.7606 249.029 53.7406C247.989 51.7306 247.469 49.4106 247.469 46.7906C247.469 44.1706 247.999 41.7906 249.069 39.7806C250.139 37.7706 251.619 36.2106 253.519 35.0806C255.419 33.9506 257.609 33.3906 260.099 33.3906C262.589 33.3906 264.879 33.9606 266.779 35.1106C268.679 36.2506 270.149 37.8306 271.199 39.8506C272.249 41.8706 272.779 44.1806 272.779 46.8006C272.779 49.4206 272.249 51.7606 271.189 53.7706C270.129 55.7806 268.649 57.3606 266.759 58.5006C264.859 59.6406 262.639 60.2106 260.099 60.2106V60.2006ZM260.099 54.8806C262.359 54.8806 264.039 54.1306 265.129 52.6206C266.229 51.1206 266.779 49.1706 266.779 46.7906C266.779 44.4106 266.219 42.3706 265.109 40.9006C263.999 39.4406 262.329 38.7006 260.099 38.7006C258.579 38.7006 257.329 39.0406 256.349 39.7206C255.369 40.4006 254.639 41.3506 254.179 42.5706C253.709 43.7806 253.469 45.1906 253.469 46.7906C253.469 49.2506 254.029 51.2106 255.149 52.6806C256.269 54.1406 257.919 54.8806 260.099 54.8806Z" fill="white"/>
<path d="M277.901 59.4909V25.6309H283.611V41.6709H282.901V59.5009H277.891L277.901 59.4909ZM290.151 60.2009C287.671 60.2009 285.601 59.6109 283.921 58.4409C282.241 57.2609 280.981 55.6609 280.131 53.6309C279.281 51.6009 278.861 49.3209 278.861 46.8009C278.861 44.2809 279.281 41.9608 280.131 39.9308C280.981 37.9008 282.221 36.3109 283.861 35.1409C285.501 33.9709 287.531 33.3909 289.941 33.3909C292.351 33.3909 294.421 33.9709 296.181 35.1409C297.941 36.3109 299.311 37.9009 300.281 39.9109C301.251 41.9209 301.741 44.2208 301.741 46.7908C301.741 49.3608 301.261 51.6109 300.311 53.6309C299.351 55.6509 298.011 57.2508 296.271 58.4308C294.531 59.6108 292.491 60.1909 290.161 60.1909L290.151 60.2009ZM289.281 55.1208C290.751 55.1208 291.971 54.7508 292.931 54.0108C293.891 53.2708 294.601 52.2708 295.061 51.0108C295.521 49.7508 295.751 48.3408 295.751 46.7908C295.751 45.2408 295.521 43.8509 295.041 42.5909C294.571 41.3309 293.841 40.3209 292.851 39.5809C291.861 38.8409 290.611 38.4609 289.091 38.4609C287.651 38.4609 286.471 38.8108 285.561 39.5108C284.651 40.2108 283.981 41.1808 283.551 42.4308C283.121 43.6808 282.901 45.1308 282.901 46.7908C282.901 48.4508 283.111 49.8909 283.551 51.1409C283.981 52.3909 284.661 53.3709 285.601 54.0709C286.541 54.7709 287.761 55.1208 289.281 55.1208Z" fill="white"/>
<path d="M318.473 60.2004C315.903 60.2004 313.643 59.6404 311.703 58.5304C309.763 57.4204 308.243 55.8704 307.153 53.9004C306.063 51.9204 305.523 49.6504 305.523 47.0804C305.523 44.3004 306.053 41.8904 307.123 39.8504C308.193 37.8104 309.673 36.2204 311.573 35.0904C313.473 33.9604 315.663 33.4004 318.153 33.4004C320.783 33.4004 323.023 34.0204 324.863 35.2504C326.703 36.4804 328.073 38.2204 328.963 40.4604C329.853 42.7004 330.193 45.3404 329.973 48.3804H324.353V46.3104C324.333 43.5504 323.853 41.5404 322.893 40.2704C321.933 39.0004 320.433 38.3704 318.373 38.3704C316.053 38.3704 314.333 39.0904 313.203 40.5204C312.073 41.9504 311.513 44.0504 311.513 46.8104C311.513 49.3804 312.073 51.3704 313.203 52.7804C314.333 54.1904 315.983 54.9004 318.143 54.9004C319.543 54.9004 320.743 54.5904 321.753 53.9704C322.763 53.3504 323.543 52.4504 324.093 51.2804L329.693 52.9704C328.723 55.2604 327.223 57.0404 325.193 58.3104C323.163 59.5804 320.923 60.2204 318.483 60.2204L318.473 60.2004ZM309.723 48.3704V44.0904H327.193V48.3704H309.723Z" fill="white"/>
<path d="M335.18 59.4909L335.23 25.6309H340.97V46.3209L350.26 34.0909H357.34L347.49 46.7908L358.19 59.4909H350.69L340.98 47.2608V59.4909H335.19H335.18Z" fill="white"/>
<path d="M159.82 109.44V75.5801H165.49V104.13H180.45V109.44H159.83H159.82Z" fill="white"/>
<path d="M185.428 120.721L190.318 107.291L190.408 111.241L179.328 84.0312H185.228L193.088 104.161H191.578L199.218 84.0312H204.888L190.728 120.721H185.408H185.428Z" fill="white"/>
<path d="M218.5 110.14C215.88 110.14 213.65 109.56 211.8 108.39C209.95 107.22 208.54 105.63 207.56 103.6C206.58 101.58 206.08 99.2903 206.07 96.7303C206.08 94.1303 206.6 91.8203 207.61 89.8003C208.62 87.7903 210.06 86.2003 211.93 85.0503C213.8 83.9003 216.01 83.3203 218.59 83.3203C221.47 83.3203 223.92 84.0503 225.92 85.5003C227.92 86.9503 229.22 88.9303 229.84 91.4403L224.2 92.9703C223.76 91.6103 223.03 90.5403 222.01 89.7803C220.99 89.0203 219.83 88.6403 218.53 88.6403C217.06 88.6403 215.84 88.9903 214.88 89.6903C213.92 90.3903 213.22 91.3503 212.76 92.5703C212.3 93.7903 212.08 95.1803 212.08 96.7303C212.08 99.1403 212.62 101.1 213.7 102.59C214.78 104.08 216.39 104.82 218.52 104.82C220.02 104.82 221.21 104.48 222.08 103.78C222.95 103.09 223.6 102.1 224.04 100.79L229.83 102.08C229.05 104.67 227.67 106.65 225.71 108.04C223.75 109.43 221.35 110.12 218.51 110.12L218.5 110.14Z" fill="white"/>
<path d="M245.38 110.142C242.81 110.142 240.55 109.582 238.61 108.472C236.67 107.362 235.15 105.812 234.06 103.842C232.97 101.862 232.43 99.5918 232.43 97.0218C232.43 94.2418 232.96 91.8318 234.03 89.7918C235.1 87.7518 236.58 86.1618 238.48 85.0318C240.38 83.9018 242.57 83.3418 245.06 83.3418C247.69 83.3418 249.93 83.9618 251.77 85.1918C253.61 86.4218 254.98 88.1618 255.87 90.4018C256.76 92.6418 257.1 95.2818 256.88 98.3218H251.26V96.2518C251.24 93.4918 250.76 91.4818 249.8 90.2118C248.84 88.9418 247.34 88.3118 245.28 88.3118C242.96 88.3118 241.24 89.0318 240.11 90.4618C238.98 91.8918 238.42 93.9918 238.42 96.7518C238.42 99.3218 238.98 101.312 240.11 102.722C241.24 104.132 242.89 104.842 245.05 104.842C246.45 104.842 247.65 104.532 248.66 103.912C249.67 103.292 250.45 102.392 251 101.222L256.6 102.912C255.63 105.202 254.13 106.982 252.1 108.252C250.07 109.522 247.83 110.152 245.39 110.152L245.38 110.142ZM236.63 98.3118V94.0318H254.1V98.3118H236.63Z" fill="white"/>
<path d="M271.672 110.161C269.792 110.161 268.242 109.851 267.012 109.221C265.792 108.591 264.812 107.791 264.092 106.821C263.372 105.851 262.842 104.811 262.492 103.721C262.142 102.621 261.922 101.581 261.822 100.601C261.722 99.6213 261.672 98.8212 261.672 98.2112V84.0312H267.412V96.2613C267.412 97.0413 267.462 97.9313 267.572 98.9113C267.682 99.8913 267.942 100.831 268.332 101.731C268.732 102.631 269.332 103.371 270.122 103.951C270.912 104.531 271.982 104.821 273.332 104.821C274.052 104.821 274.762 104.701 275.472 104.471C276.182 104.231 276.812 103.831 277.392 103.261C277.972 102.691 278.422 101.901 278.772 100.901C279.112 99.9012 279.292 98.6312 279.292 97.0912L282.652 98.5212C282.652 100.681 282.232 102.641 281.392 104.401C280.552 106.161 279.322 107.561 277.692 108.601C276.062 109.641 274.052 110.161 271.672 110.161ZM279.972 109.431V101.551H279.292V84.0312H284.982V109.431H279.972Z" fill="white"/>
<path d="M291.508 109.44V84.0404H296.518V91.9204H297.228V109.44H291.518H291.508ZM306.818 109.44V94.0804C306.818 92.3104 306.388 90.9304 305.528 89.9404C304.668 88.9504 303.488 88.4604 301.998 88.4604C300.508 88.4604 299.398 88.9504 298.528 89.9404C297.658 90.9304 297.218 92.2104 297.218 93.8004L294.678 92.1104C294.678 90.4604 295.088 88.9804 295.898 87.6704C296.708 86.3504 297.818 85.3104 299.198 84.5504C300.588 83.7904 302.138 83.4104 303.868 83.4104C305.768 83.4104 307.348 83.8104 308.628 84.6204C309.908 85.4304 310.858 86.5304 311.498 87.9104C312.128 89.3004 312.448 90.8604 312.448 92.6004V109.44H306.808H306.818ZM322.058 109.44V94.0104C322.058 92.2704 321.628 90.9104 320.768 89.9304C319.908 88.9504 318.738 88.4604 317.268 88.4604C316.358 88.4604 315.548 88.6704 314.818 89.0804C314.098 89.5004 313.528 90.1104 313.098 90.9104C312.678 91.7204 312.468 92.6804 312.468 93.7904L309.948 92.3104C309.928 90.5504 310.328 89.0104 311.138 87.6704C311.948 86.3304 313.038 85.2804 314.418 84.5304C315.798 83.7804 317.338 83.4004 319.028 83.4004C321.838 83.4004 323.988 84.2404 325.488 85.9304C326.988 87.6204 327.738 89.8304 327.738 92.5704V109.43H322.068L322.058 109.44Z" fill="white"/>
</svg>
