<?xml version="1.0" encoding="UTF-8"?>
<svg id="Layer_1" data-name="Layer 1" xmlns="http://www.w3.org/2000/svg" viewBox="0 0 566.93 566.93">
  <defs>
    <style>
      .cls-1 {
        fill: #472c82;
      }
    </style>
  </defs>
  <g>
    <circle class="cls-1" cx="219.57" cy="318.16" r="2.86"/>
    <path class="cls-1" d="m199.53,273.81c-4.12,0-7.47,3.35-7.47,7.47s3.35,7.47,7.47,7.47,7.47-3.35,7.47-7.47-3.35-7.47-7.47-7.47Z"/>
    <path class="cls-1" d="m178.5,212.83l-.17.02c-41.85.55-53.94,10.98-54.45,11.43-.42.38-.66.91-.66,1.47v85.31c0,9.39,4.18,18.17,11.47,24.08.76.61,1.55,1.19,2.34,1.72l42.81,28.52v-94.24c-6.96,5.32-7.93,14.86-8,15.66v68.17l-.02.15c0,.06-.02.11-.02.16h0l-3.9-2.6v-66.08c.04-.59,1.02-14.09,11.95-20.18v-6.91c-2.91,1.5-6.42,3.73-8.66,5.73-9.56,8.55-9.56,20.37-9.56,29h-3.95c0-8.85,0-22.22,10.88-31.95,3.04-2.72,7.89-5.63,11.29-7.18v-5.1c-2.89,1.19-6.5,3.06-8.88,4.64-8.83,5.89-17.86,14.85-17.86,36.68h-3.95c0-23.83,10.49-33.88,19.62-39.96,3.02-2.01,7.73-4.37,11.07-5.6v-4.9c-5.6,1.84-13.19,5.58-18.91,10.49-14.27,12.26-16.41,28.46-16.41,37.02h-3.95c0-9.24,2.31-26.72,17.78-40.02,6.6-5.66,15.24-9.79,21.49-11.64v-4.87c-7.06,1.96-16.68,6.35-24.3,12.57-.58.5-19.65,17.3-19.65,42.04v44.49c-1.5-1.38-2.82-2.91-3.95-4.55v-39.94c0-26.86,20.2-44.33,21.06-45.06,9-7.34,19.72-11.81,26.85-13.63v-10.97h0v-3.95c-.39,0-.78,0-1.17.01l-.18-.02Zm-6.19,11.43c-9.15,2.84-17.75,7.59-25.6,14.13-.07.08-.14.16-.22.23-.85.74-1.73,1.39-2.6,1.93-1.14.71-2.44,1.16-3.78,1.34-1.14.74-5.45,4.15-6.65,14.54l-3.92-.46c.89-7.62,3.33-12.13,5.49-14.72-.01,0-.02,0-.04-.01-2.65-1.09-4.47-3.2-5.13-5.94-1.4-5.85,2.34-10.07,6.57-11.08,1.98-.47,3.89-.16,5.4.89,1.4.96,2.28,2.44,2.5,4.17.35,2.74-1.06,4.92-3.57,5.55-1.96.5-4.4-.07-5.1-1.89-.4-1.02.11-2.16,1.13-2.56.84-.32,1.76-.04,2.28.64.27.05.78.04,1.1-.19.09-.06.35-.25.25-1.06-.08-.6-.36-1.09-.83-1.42-.58-.4-1.37-.5-2.24-.29-1.36.32-4.66,2.09-3.65,6.32.45,1.89,1.76,2.79,2.78,3.21,1.72.7,3.8.55,5.32-.39.42-.26.83-.55,1.25-.87h0c8.55-7.38,18-12.7,28.1-15.83l.74-.23,1.17,3.77-.74.23Z"/>
    <path class="cls-1" d="m208.65,232.42c-2.35-1.98-7.01-2.06-9.87-1.82v12.49h11.34v-6.13c0-.36.01-.71.04-1.05h-.04c0-1.53-.47-2.64-1.47-3.49Z"/>
    <path class="cls-1" d="m216.02,232.19c-1.31,1.06-1.94,2.62-1.94,4.76v6.13h11.34v-12.55c-2.66-.3-7-.3-9.4,1.66Z"/>
    <path class="cls-1" d="m246.3,216.96c-2.6-2.33-17.96-13.95-64.49-13.95s-61.88,11.63-64.49,13.96c-2.49,2.23-3.92,5.43-3.92,8.78v85.31c0,12.36,5.51,23.93,15.14,31.74,1.01.81,2.04,1.57,3.04,2.24l43.68,29.11c1.99,1.32,4.26,1.98,6.54,1.98s4.55-.66,6.54-1.98l43.69-29.11c4.6-3.06,8.47-6.96,11.49-11.59l.2-.3c4.25-6.6,6.5-14.24,6.5-22.09v-85.31c0-3.34-1.43-6.55-3.93-8.79Zm-.02,94.1c0,7.09-2.03,13.99-5.86,19.93l-.19.28c-2.74,4.18-6.23,7.7-10.38,10.47l-43.69,29.1c-2.64,1.76-6.06,1.76-8.7,0l-43.69-29.11c-.91-.6-1.84-1.29-2.75-2.02-8.69-7.05-13.67-17.49-13.67-28.66v-85.31c0-2.23.95-4.35,2.6-5.83,2.42-2.16,16.79-12.96,61.86-12.96s59.44,10.79,61.86,12.95c1.65,1.49,2.6,3.62,2.6,5.84v85.31Z"/>
    <path class="cls-1" d="m227.4,218.4s0,0-.01,0c-8.57-2.73-22.35-5.4-43.59-5.56v3.95h0v44.81h56.62v-35.85c0-.56-.24-1.09-.66-1.47-.26-.23-3.57-3.09-12.36-5.88Zm0,36.28h-30.59v-3.95h30.59v3.95Zm1.98-7.64h-15.29v.34h-3.95v-.34h-15.29v-19.86l1.64-.28c1-.17,9.94-1.55,14.72,2.5.38.32.72.66,1.02,1.03.38-.47.82-.91,1.32-1.31,5.06-4.09,13.89-2.28,14.27-2.2l1.57.33v19.79Z"/>
    <path class="cls-1" d="m236.46,265.55h-52.67v36.24h55.85s.77,0,.77,0v-36.23h-3.95Zm-36.93,27.15c-6.3,0-11.42-5.12-11.42-11.42s5.12-11.42,11.42-11.42,11.42,5.13,11.42,11.42-5.13,11.42-11.42,11.42Zm32.43,3.48c-4.25,0-7.68-1.57-11.01-3.09-2.91-1.33-5.66-2.59-8.67-2.59v-3.95c3.87,0,7.15,1.49,10.31,2.94,3.08,1.41,5.98,2.73,9.37,2.73v3.95Zm0-6.51c-4.25,0-7.68-1.57-11.01-3.09-2.91-1.33-5.66-2.58-8.67-2.58v-3.95c3.87,0,7.15,1.49,10.31,2.94,3.08,1.41,5.98,2.73,9.37,2.73v3.95Zm0-7.07c-4.25,0-7.68-1.57-11.01-3.09-2.91-1.33-5.66-2.58-8.67-2.58v-3.95c3.87,0,7.15,1.49,10.31,2.94,3.08,1.41,5.98,2.73,9.37,2.73v3.95Z"/>
    <path class="cls-1" d="m236.46,305.74h0s-52.67,0-52.67,0v17.09c2.59-3.04,6.56-6.06,12.11-6.06,5.85,0,9.15,4.67,12.06,8.79,2.75,3.89,5.12,7.24,9.06,7.24,8.27,0,14.43-6.38,15.21-7.24l-.09.13c-2.02,3.15-4.62,5.8-7.74,7.87l-4.47,2.98h0c-.94.13-1.91.21-2.91.21-5.99,0-9.34-4.74-12.29-8.91-2.7-3.82-5.03-7.12-8.83-7.12-7.41,0-11.34,7.72-12.11,9.38v35.27l42.81-28.52c3.5-2.33,6.43-5.29,8.73-8.81l.15-.22c3.23-5.01,4.93-10.81,4.93-16.77v-5.33h-3.95Zm-16.89,19.24c-3.75,0-6.81-3.06-6.81-6.81s3.06-6.81,6.81-6.81,6.81,3.06,6.81,6.81-3.06,6.81-6.81,6.81Z"/>
  </g>
  <g>
    <path class="cls-1" d="m267.71,261.6l10.68-33.86h8.3l10.68,33.86h-5.83l-9.69-30.38h1.27l-9.57,30.38h-5.83Zm5.95-7.34v-5.29h17.78v5.29h-17.78Z"/>
    <path class="cls-1" d="m311.78,262.3c-2.34,0-4.37-.59-6.11-1.76-1.74-1.18-3.09-2.78-4.04-4.8-.96-2.02-1.43-4.3-1.43-6.84s.48-4.86,1.45-6.88c.96-2.01,2.33-3.61,4.1-4.77,1.77-1.17,3.86-1.75,6.26-1.75s4.44.58,6.08,1.75c1.64,1.17,2.88,2.76,3.73,4.79s1.27,4.31,1.27,6.87-.42,4.8-1.27,6.83c-.85,2.03-2.11,3.63-3.79,4.81-1.68,1.18-3.76,1.76-6.23,1.76Zm.87-5.08c1.52,0,2.75-.35,3.68-1.05.93-.7,1.61-1.67,2.05-2.93.43-1.25.65-2.7.65-4.35s-.22-3.12-.65-4.36c-.43-1.25-1.1-2.22-2.01-2.92-.91-.7-2.09-1.05-3.53-1.05-1.52,0-2.78.37-3.76,1.12-.99.74-1.72,1.75-2.19,3.01-.47,1.26-.71,2.66-.71,4.2s.23,2.96.69,4.22c.46,1.26,1.17,2.26,2.13,3,.96.74,2.17,1.11,3.65,1.11Zm5.67,15.66v-18.86h.71v-17.83h5.01v36.69h-5.71Z"/>
    <path class="cls-1" d="m330.57,261.6v-33.86h5.71v16.04h-.71v17.83h-5.01Zm12.25.71c-2.48,0-4.55-.59-6.23-1.76-1.68-1.18-2.94-2.78-3.79-4.81-.85-2.03-1.27-4.31-1.27-6.83s.42-4.84,1.27-6.87,2.09-3.62,3.73-4.79c1.64-1.17,3.67-1.75,6.08-1.75s4.48.58,6.24,1.75,3.13,2.76,4.1,4.77c.97,2.01,1.46,4.31,1.46,6.88s-.48,4.82-1.43,6.84-2.3,3.62-4.04,4.8c-1.74,1.18-3.78,1.76-6.11,1.76Zm-.87-5.08c1.47,0,2.69-.37,3.65-1.11.96-.74,1.67-1.74,2.13-3,.46-1.26.69-2.67.69-4.22s-.23-2.94-.71-4.2-1.2-2.27-2.19-3.01c-.99-.74-2.24-1.12-3.76-1.12-1.44,0-2.62.35-3.53,1.05-.91.7-1.58,1.67-2.01,2.92-.43,1.25-.65,2.7-.65,4.36s.21,3.1.65,4.35c.43,1.25,1.11,2.23,2.05,2.93.93.7,2.16,1.05,3.68,1.05Z"/>
    <path class="cls-1" d="m370.81,262.3c-2.54,0-4.76-.57-6.66-1.72-1.9-1.14-3.37-2.72-4.41-4.74-1.04-2.01-1.56-4.33-1.56-6.95s.53-5,1.6-7.01,2.55-3.57,4.45-4.7c1.9-1.13,4.09-1.69,6.58-1.69s4.78.57,6.68,1.72c1.9,1.15,3.37,2.72,4.42,4.74,1.05,2.02,1.58,4.33,1.58,6.95s-.53,4.96-1.59,6.97c-1.06,2.01-2.54,3.59-4.43,4.73-1.9,1.14-4.12,1.71-6.66,1.71Zm0-5.31c2.26,0,3.94-.75,5.03-2.26,1.1-1.5,1.65-3.45,1.65-5.83s-.56-4.43-1.67-5.89-2.78-2.2-5.01-2.2c-1.52,0-2.77.34-3.75,1.02-.98.68-1.71,1.63-2.17,2.85-.47,1.22-.71,2.62-.71,4.22,0,2.46.56,4.43,1.68,5.89s2.77,2.2,4.95,2.2Z"/>
    <path class="cls-1" d="m388.61,261.6v-33.86h5.71v16.04h-.71v17.83h-5.01Zm12.25.71c-2.48,0-4.55-.59-6.23-1.76-1.68-1.18-2.94-2.78-3.79-4.81-.85-2.03-1.27-4.31-1.27-6.83s.42-4.84,1.27-6.87,2.09-3.62,3.73-4.79c1.64-1.17,3.67-1.75,6.08-1.75s4.48.58,6.24,1.75,3.13,2.76,4.1,4.77c.97,2.01,1.46,4.31,1.46,6.88s-.48,4.82-1.43,6.84-2.3,3.62-4.04,4.8c-1.74,1.18-3.78,1.76-6.11,1.76Zm-.87-5.08c1.47,0,2.69-.37,3.65-1.11.96-.74,1.67-1.74,2.13-3,.46-1.26.69-2.67.69-4.22s-.23-2.94-.71-4.2-1.2-2.27-2.19-3.01c-.99-.74-2.24-1.12-3.76-1.12-1.44,0-2.62.35-3.53,1.05-.91.7-1.58,1.67-2.01,2.92-.43,1.25-.65,2.7-.65,4.36s.21,3.1.65,4.35c.43,1.25,1.11,2.23,2.05,2.93.93.7,2.16,1.05,3.68,1.05Z"/>
    <path class="cls-1" d="m429.18,262.3c-2.57,0-4.83-.56-6.77-1.67-1.94-1.11-3.46-2.66-4.55-4.63s-1.63-4.25-1.63-6.82c0-2.78.53-5.19,1.6-7.23,1.07-2.05,2.55-3.63,4.45-4.76,1.9-1.13,4.09-1.69,6.58-1.69,2.63,0,4.87.62,6.71,1.85,1.84,1.23,3.21,2.97,4.1,5.21s1.23,4.88,1.01,7.93h-5.62v-2.07c-.02-2.76-.5-4.77-1.46-6.04s-2.46-1.9-4.52-1.9c-2.32,0-4.04.72-5.17,2.15s-1.69,3.53-1.69,6.29c0,2.57.56,4.56,1.69,5.97s2.78,2.12,4.94,2.12c1.4,0,2.6-.31,3.61-.93,1.01-.62,1.79-1.52,2.34-2.69l5.6,1.69c-.97,2.29-2.47,4.07-4.5,5.34-2.03,1.27-4.27,1.9-6.71,1.9Zm-8.75-11.83v-4.28h17.47v4.28h-17.47Z"/>
    <path class="cls-1" d="m445.9,261.6l.05-33.86h5.74v20.69l9.29-12.23h7.08l-9.85,12.7,10.7,12.7h-7.5l-9.71-12.23v12.23h-5.79Z"/>
    <path class="cls-1" d="m270.53,311.54v-33.86h5.67v28.55h14.96v5.31h-20.62Z"/>
    <path class="cls-1" d="m296.14,322.83l4.89-13.43.09,3.95-11.08-27.21h5.9l7.86,20.13h-1.51l7.64-20.13h5.67l-14.16,36.69h-5.32Z"/>
    <path class="cls-1" d="m329.21,312.24c-2.62,0-4.85-.58-6.7-1.75-1.85-1.17-3.26-2.76-4.24-4.79-.98-2.02-1.48-4.31-1.49-6.87.01-2.6.53-4.91,1.54-6.93,1.01-2.01,2.45-3.6,4.32-4.75,1.87-1.15,4.08-1.73,6.66-1.73,2.88,0,5.33.72,7.33,2.17,2,1.45,3.3,3.43,3.92,5.94l-5.64,1.53c-.44-1.36-1.17-2.43-2.19-3.19-1.02-.76-2.18-1.14-3.48-1.14-1.47,0-2.69.35-3.65,1.05-.96.7-1.66,1.66-2.12,2.88-.46,1.22-.68,2.61-.68,4.16,0,2.41.54,4.37,1.62,5.86,1.08,1.49,2.69,2.23,4.82,2.23,1.5,0,2.69-.34,3.56-1.04.87-.69,1.52-1.68,1.96-2.99l5.79,1.29c-.78,2.59-2.16,4.57-4.12,5.96-1.96,1.39-4.36,2.08-7.2,2.08Z"/>
    <path class="cls-1" d="m356.09,312.24c-2.57,0-4.83-.56-6.77-1.67-1.94-1.11-3.46-2.66-4.55-4.63-1.09-1.98-1.63-4.25-1.63-6.82,0-2.78.53-5.19,1.6-7.23s2.55-3.63,4.45-4.76c1.9-1.13,4.09-1.69,6.58-1.69,2.63,0,4.87.62,6.71,1.85,1.84,1.23,3.21,2.97,4.1,5.21s1.23,4.88,1.01,7.92h-5.62v-2.07c-.02-2.76-.5-4.77-1.46-6.04-.96-1.27-2.46-1.9-4.52-1.9-2.32,0-4.04.72-5.17,2.15s-1.69,3.53-1.69,6.29c0,2.57.56,4.56,1.69,5.97s2.78,2.12,4.94,2.12c1.4,0,2.6-.31,3.61-.93,1.01-.62,1.79-1.52,2.34-2.69l5.6,1.69c-.97,2.29-2.47,4.07-4.5,5.34-2.03,1.27-4.27,1.9-6.71,1.9Zm-8.75-11.83v-4.28h17.47v4.28h-17.47Z"/>
    <path class="cls-1" d="m382.38,312.27c-1.88,0-3.43-.31-4.66-.94-1.22-.63-2.2-1.43-2.92-2.4-.72-.97-1.25-2.01-1.6-3.1-.35-1.1-.57-2.14-.67-3.12-.1-.98-.15-1.78-.15-2.39v-14.18h5.74v12.23c0,.78.05,1.67.16,2.65.11.98.37,1.92.76,2.82.4.9,1,1.64,1.79,2.22s1.86.87,3.21.87c.72,0,1.43-.12,2.14-.35.71-.24,1.34-.64,1.92-1.21s1.03-1.36,1.38-2.36c.34-1,.52-2.27.52-3.81l3.36,1.43c0,2.16-.42,4.12-1.26,5.88s-2.07,3.16-3.7,4.2c-1.63,1.04-3.64,1.56-6.02,1.56Zm8.3-.73v-7.88h-.68v-17.52h5.69v25.4h-5.01Z"/>
    <path class="cls-1" d="m402.22,311.54v-25.4h5.01v7.88h.71v17.52h-5.71Zm15.31,0v-15.36c0-1.77-.43-3.15-1.29-4.14-.86-.99-2.04-1.48-3.53-1.48s-2.6.49-3.47,1.48c-.87.99-1.31,2.27-1.31,3.86l-2.54-1.69c0-1.65.41-3.13,1.22-4.44.81-1.32,1.92-2.36,3.3-3.12s2.94-1.14,4.67-1.14c1.9,0,3.48.4,4.76,1.21,1.28.81,2.23,1.91,2.87,3.29.63,1.39.95,2.95.95,4.69v16.84h-5.64Zm15.24,0v-15.43c0-1.74-.43-3.1-1.29-4.08-.86-.98-2.03-1.47-3.5-1.47-.91,0-1.72.21-2.45.62-.72.42-1.29,1.03-1.72,1.83-.42.81-.63,1.77-.63,2.88l-2.52-1.48c-.02-1.76.38-3.3,1.19-4.64.81-1.34,1.9-2.39,3.28-3.14,1.38-.75,2.92-1.13,4.61-1.13,2.81,0,4.96.84,6.46,2.53s2.25,3.9,2.25,6.64v16.86h-5.67Z"/>
  </g>
</svg>