<?xml version="1.0" encoding="UTF-8"?>
<svg id="Layer_1" data-name="Layer 1" xmlns="http://www.w3.org/2000/svg" viewBox="0 0 566.93 566.93">
  <defs>
    <style>
      .cls-1 {
        fill: #472c82;
      }
    </style>
  </defs>
  <g>
    <path class="cls-1" d="m248.28,216.96c-2.61-2.33-17.96-13.95-64.49-13.95s-61.88,11.63-64.5,13.97c-2.49,2.23-3.92,5.43-3.92,8.78v85.31c0,12.36,5.52,23.93,15.14,31.73,1.01.81,2.04,1.56,3.05,2.24l43.69,29.11c1.99,1.32,4.26,1.99,6.54,1.99,2.28,0,4.55-.66,6.54-1.99l43.69-29.11c4.6-3.06,8.47-6.96,11.5-11.59l.2-.3c4.25-6.6,6.5-14.24,6.5-22.09v-85.31c0-3.34-1.43-6.54-3.93-8.79Zm-.02,94.1c0,7.09-2.03,13.99-5.86,19.93l-.19.29c-2.73,4.18-6.23,7.7-10.38,10.46l-43.69,29.11c-2.64,1.76-6.06,1.76-8.7,0l-43.69-29.11h0c-.91-.61-1.84-1.29-2.75-2.02-8.69-7.05-13.67-17.49-13.67-28.66v-85.31c0-2.22.95-4.35,2.6-5.83,2.42-2.16,16.79-12.96,61.86-12.96s59.43,10.79,61.86,12.96c1.66,1.49,2.6,3.61,2.6,5.84v85.31Z"/>
    <path class="cls-1" d="m183.8,212.83c-44.66,0-57.42,10.99-57.94,11.45-.42.37-.66.91-.66,1.47v85.31c0,9.39,4.18,18.17,11.47,24.08.76.61,1.55,1.19,2.34,1.72l43.69,29.11c.66.44,1.53.44,2.19,0l43.69-29.11c3.5-2.33,6.43-5.29,8.73-8.81l.15-.22c3.23-5.01,4.93-10.81,4.93-16.77v-85.31c0-.56-.24-1.1-.66-1.47-.52-.47-13.28-11.45-57.94-11.45Zm54.64,15.01v33.76h-52.67v-44.81c32.96.25,47.26,6.73,51.7,9.35.6.36.97,1,.97,1.7Zm-52.67,102.27c.76-1.67,4.69-9.39,12.11-9.39,3.8,0,6.13,3.3,8.84,7.12,2.95,4.18,6.3,8.91,12.29,8.91,1.01,0,1.98-.07,2.92-.21l-36.15,24.08v-30.53Zm0-64.56h52.67v36.24h-52.67v-36.24Zm-56.62-37.71c0-.7.37-1.35.97-1.7,4.46-2.63,18.75-9.1,51.7-9.35v10.97c-7.14,1.82-17.85,6.29-26.85,13.63-.86.73-21.06,18.2-21.06,45.06v39.94c-3.07-4.45-4.76-9.77-4.76-15.33v-83.22Zm10.01,104.23c-.45-.36-.88-.74-1.3-1.13v-44.49c0-24.74,19.07-41.54,19.65-42.04,7.62-6.21,17.24-10.6,24.3-12.56v4.87c-6.24,1.84-14.89,5.97-21.49,11.63-15.47,13.3-17.78,30.78-17.78,40.02h3.95c0-8.56,2.13-24.75,16.41-37.02,5.72-4.92,13.31-8.66,18.91-10.49v4.9c-3.34,1.22-8.05,3.58-11.07,5.6-9.14,6.09-19.62,16.13-19.62,39.97h3.95c0-21.83,9.03-30.79,17.86-36.68,2.38-1.58,5.99-3.45,8.88-4.65v5.1c-3.4,1.55-8.25,4.46-11.29,7.18-10.88,9.73-10.88,23.1-10.88,31.95h3.95c0-8.63,0-20.46,9.56-29,2.24-2,5.75-4.23,8.66-5.73v6.92c-10.94,6.09-11.91,19.59-11.95,20.18v.06s0,66.02,0,66.02l-28.66-19.1c-.69-.46-1.38-.96-2.04-1.5Zm34.6,23.2c0-.05.02-.1.03-.16l.02-.15v-68.17c.07-.79,1.03-10.33,8-15.65v89.5l-6.15-4.1-1.9-1.26Zm60.51-29.79l-.06.09c-.8.87-6.95,7.23-15.21,7.23-3.94,0-6.32-3.36-9.06-7.24-2.91-4.12-6.22-8.79-12.06-8.79s-9.52,3.03-12.11,6.06v-17.1h52.67v5.33c0,5.11-1.44,10.09-4.17,14.42Z"/>
    <path class="cls-1" d="m210.13,248.63v.34h3.95v-.34h15.29v-19.8l-1.57-.33c-.37-.08-9.21-1.89-14.27,2.2-.49.4-.93.83-1.32,1.31-.3-.37-.64-.71-1.02-1.03-4.79-4.04-13.72-2.67-14.72-2.5l-1.65.28v19.87h15.29Zm3.95-10.09c0-2.14.63-3.7,1.94-4.76,2.4-1.95,6.74-1.95,9.4-1.65v12.55h-11.34v-6.13Zm-5.43-4.54c1.01.85,1.48,1.96,1.48,3.5h.04c-.03.34-.04.69-.04,1.04v6.13h-11.34v-12.49c2.86-.24,7.52-.16,9.86,1.82Z"/>
    <rect class="cls-1" x="196.82" y="252.32" width="30.58" height="3.95"/>
    <path class="cls-1" d="m201.52,269.86c-6.3,0-11.42,5.12-11.42,11.42s5.12,11.42,11.42,11.42,11.42-5.12,11.42-11.42-5.12-11.42-11.42-11.42Zm0,18.89c-4.12,0-7.47-3.35-7.47-7.47s3.35-7.47,7.47-7.47,7.47,3.35,7.47,7.47-3.35,7.47-7.47,7.47Z"/>
    <path class="cls-1" d="m221.55,311.35c-3.76,0-6.81,3.06-6.81,6.81s3.06,6.81,6.81,6.81,6.81-3.06,6.81-6.81-3.06-6.81-6.81-6.81Zm0,9.68c-1.58,0-2.86-1.28-2.86-2.86s1.28-2.86,2.86-2.86,2.86,1.28,2.86,2.86-1.28,2.86-2.86,2.86Z"/>
    <path class="cls-1" d="m224.58,275.92c-3.17-1.45-6.44-2.94-10.31-2.94v3.95c3.01,0,5.76,1.26,8.67,2.59,3.32,1.52,6.76,3.09,11.01,3.09v-3.95c-3.39,0-6.29-1.33-9.37-2.73Z"/>
    <path class="cls-1" d="m214.27,280.04v3.95c3.01,0,5.76,1.26,8.67,2.59,3.32,1.52,6.76,3.09,11.01,3.09v-3.95c-3.39,0-6.29-1.33-9.37-2.73-3.17-1.45-6.44-2.94-10.31-2.94Z"/>
    <path class="cls-1" d="m214.27,286.55v3.95c3.01,0,5.76,1.26,8.67,2.59,3.32,1.52,6.76,3.09,11.01,3.09v-3.95c-3.39,0-6.29-1.33-9.37-2.73-3.17-1.45-6.44-2.94-10.31-2.94Z"/>
    <path class="cls-1" d="m137.85,257.69c1.2-10.39,5.51-13.8,6.65-14.54,1.34-.18,2.64-.63,3.78-1.34.87-.54,1.75-1.19,2.6-1.93.08-.07.15-.15.22-.23,7.85-6.54,16.45-11.29,25.6-14.13l.74-.23-1.17-3.78-.74.23c-10.1,3.13-19.55,8.45-28.1,15.82h0c-.42.33-.84.62-1.25.88-1.52.94-3.6,1.1-5.32.39-1.02-.42-2.33-1.32-2.78-3.2-1.01-4.23,2.29-5.99,3.65-6.32.87-.21,1.66-.1,2.24.29.46.32.75.81.83,1.41.1.8-.16.99-.24,1.06-.32.23-.83.25-1.1.2-.52-.68-1.45-.97-2.29-.64-1.02.4-1.52,1.54-1.13,2.56.7,1.81,3.15,2.38,5.1,1.89,2.52-.64,3.92-2.82,3.57-5.55-.22-1.72-1.11-3.2-2.5-4.17-1.51-1.04-3.43-1.36-5.4-.89-4.23,1.01-7.97,5.24-6.57,11.08.66,2.74,2.48,4.85,5.13,5.94.01,0,.02,0,.03.01-2.16,2.59-4.6,7.1-5.48,14.72l3.93.46Z"/>
  </g>
  <g>
    <path class="cls-1" d="m271.64,261.6l10.68-33.86h8.3l10.68,33.86h-5.83l-9.69-30.38h1.27l-9.57,30.38h-5.83Zm5.95-7.34v-5.29h17.78v5.29h-17.78Z"/>
    <path class="cls-1" d="m315.71,262.3c-2.34,0-4.37-.59-6.11-1.76-1.74-1.18-3.09-2.78-4.04-4.8-.96-2.02-1.43-4.3-1.43-6.84s.48-4.86,1.45-6.88c.96-2.01,2.33-3.61,4.1-4.77,1.77-1.17,3.86-1.75,6.26-1.75s4.44.58,6.08,1.75c1.64,1.17,2.88,2.76,3.73,4.79s1.27,4.31,1.27,6.87-.42,4.8-1.27,6.83c-.85,2.03-2.11,3.63-3.79,4.81-1.68,1.18-3.76,1.76-6.23,1.76Zm.87-5.08c1.52,0,2.75-.35,3.68-1.05.93-.7,1.61-1.67,2.05-2.93.43-1.25.65-2.7.65-4.35s-.22-3.12-.65-4.36c-.43-1.25-1.1-2.22-2.01-2.92-.91-.7-2.09-1.05-3.53-1.05-1.52,0-2.78.37-3.76,1.12-.99.74-1.72,1.75-2.19,3.01-.47,1.26-.71,2.66-.71,4.2s.23,2.96.69,4.22c.46,1.26,1.17,2.26,2.13,3,.96.74,2.17,1.11,3.65,1.11Zm5.67,15.66v-18.86h.71v-17.83h5.01v36.69h-5.71Z"/>
    <path class="cls-1" d="m334.5,261.6v-33.86h5.71v16.04h-.71v17.83h-5.01Zm12.25.71c-2.48,0-4.55-.59-6.23-1.76-1.68-1.18-2.94-2.78-3.79-4.81-.85-2.03-1.27-4.31-1.27-6.83s.42-4.84,1.27-6.87,2.09-3.62,3.73-4.79c1.64-1.17,3.67-1.75,6.08-1.75s4.48.58,6.24,1.75,3.13,2.76,4.1,4.77c.97,2.01,1.46,4.31,1.46,6.88s-.48,4.82-1.43,6.84-2.3,3.62-4.04,4.8c-1.74,1.18-3.78,1.76-6.11,1.76Zm-.87-5.08c1.47,0,2.69-.37,3.65-1.11.96-.74,1.67-1.74,2.13-3,.46-1.26.69-2.67.69-4.22s-.23-2.94-.71-4.2-1.2-2.27-2.19-3.01c-.99-.74-2.24-1.12-3.76-1.12-1.44,0-2.62.35-3.53,1.05-.91.7-1.58,1.67-2.01,2.92-.43,1.25-.65,2.7-.65,4.36s.21,3.1.65,4.35c.43,1.25,1.11,2.23,2.05,2.93.93.7,2.16,1.05,3.68,1.05Z"/>
    <path class="cls-1" d="m374.74,262.3c-2.54,0-4.76-.57-6.66-1.72-1.9-1.14-3.37-2.72-4.41-4.74-1.04-2.01-1.56-4.33-1.56-6.95s.53-5,1.6-7.01,2.55-3.57,4.45-4.7c1.9-1.13,4.09-1.69,6.58-1.69s4.78.57,6.68,1.72c1.9,1.15,3.37,2.72,4.42,4.74,1.05,2.02,1.58,4.33,1.58,6.95s-.53,4.96-1.59,6.97c-1.06,2.01-2.54,3.59-4.43,4.73-1.9,1.14-4.12,1.71-6.66,1.71Zm0-5.31c2.26,0,3.94-.75,5.03-2.26,1.1-1.5,1.65-3.45,1.65-5.83s-.56-4.43-1.67-5.89-2.78-2.2-5.01-2.2c-1.52,0-2.77.34-3.75,1.02-.98.68-1.71,1.63-2.17,2.85-.47,1.22-.71,2.62-.71,4.22,0,2.46.56,4.43,1.68,5.89s2.77,2.2,4.95,2.2Z"/>
    <path class="cls-1" d="m392.54,261.6v-33.86h5.71v16.04h-.71v17.83h-5.01Zm12.25.71c-2.48,0-4.55-.59-6.23-1.76-1.68-1.18-2.94-2.78-3.79-4.81-.85-2.03-1.27-4.31-1.27-6.83s.42-4.84,1.27-6.87,2.09-3.62,3.73-4.79c1.64-1.17,3.67-1.75,6.08-1.75s4.48.58,6.24,1.75,3.13,2.76,4.1,4.77c.97,2.01,1.46,4.31,1.46,6.88s-.48,4.82-1.43,6.84-2.3,3.62-4.04,4.8c-1.74,1.18-3.78,1.76-6.11,1.76Zm-.87-5.08c1.47,0,2.69-.37,3.65-1.11.96-.74,1.67-1.74,2.13-3,.46-1.26.69-2.67.69-4.22s-.23-2.94-.71-4.2-1.2-2.27-2.19-3.01c-.99-.74-2.24-1.12-3.76-1.12-1.44,0-2.62.35-3.53,1.05-.91.7-1.58,1.67-2.01,2.92-.43,1.25-.65,2.7-.65,4.36s.21,3.1.65,4.35c.43,1.25,1.11,2.23,2.05,2.93.93.7,2.16,1.05,3.68,1.05Z"/>
    <path class="cls-1" d="m433.11,262.3c-2.57,0-4.83-.56-6.77-1.67-1.94-1.11-3.46-2.66-4.55-4.63s-1.63-4.25-1.63-6.82c0-2.78.53-5.19,1.6-7.23,1.07-2.05,2.55-3.63,4.45-4.76,1.9-1.13,4.09-1.69,6.58-1.69,2.63,0,4.87.62,6.71,1.85,1.84,1.23,3.21,2.97,4.1,5.21s1.23,4.88,1.01,7.93h-5.62v-2.07c-.02-2.76-.5-4.77-1.46-6.04s-2.46-1.9-4.52-1.9c-2.32,0-4.04.72-5.17,2.15s-1.69,3.53-1.69,6.29c0,2.57.56,4.56,1.69,5.97s2.78,2.12,4.94,2.12c1.4,0,2.6-.31,3.61-.93,1.01-.62,1.79-1.52,2.34-2.69l5.6,1.69c-.97,2.29-2.47,4.07-4.5,5.34-2.03,1.27-4.27,1.9-6.71,1.9Zm-8.75-11.83v-4.28h17.47v4.28h-17.47Z"/>
    <path class="cls-1" d="m449.83,261.6l.05-33.86h5.74v20.69l9.29-12.23h7.08l-9.85,12.7,10.7,12.7h-7.5l-9.71-12.23v12.23h-5.79Z"/>
    <path class="cls-1" d="m274.46,311.54v-33.86h5.67v28.55h14.96v5.31h-20.62Z"/>
    <path class="cls-1" d="m300.07,322.83l4.89-13.43.09,3.95-11.08-27.21h5.9l7.86,20.13h-1.51l7.64-20.13h5.67l-14.16,36.69h-5.32Z"/>
    <path class="cls-1" d="m333.14,312.24c-2.62,0-4.85-.58-6.7-1.75-1.85-1.17-3.26-2.76-4.24-4.79-.98-2.02-1.48-4.31-1.49-6.87.01-2.6.53-4.91,1.54-6.93,1.01-2.01,2.45-3.6,4.32-4.75,1.87-1.15,4.08-1.73,6.66-1.73,2.88,0,5.33.72,7.33,2.17,2,1.45,3.3,3.43,3.92,5.94l-5.64,1.53c-.44-1.36-1.17-2.43-2.19-3.19-1.02-.76-2.18-1.14-3.48-1.14-1.47,0-2.69.35-3.65,1.05-.96.7-1.66,1.66-2.12,2.88-.46,1.22-.68,2.61-.68,4.16,0,2.41.54,4.37,1.62,5.86,1.08,1.49,2.69,2.23,4.82,2.23,1.5,0,2.69-.34,3.56-1.04.87-.69,1.52-1.68,1.96-2.99l5.79,1.29c-.78,2.59-2.16,4.57-4.12,5.96-1.96,1.39-4.36,2.08-7.2,2.08Z"/>
    <path class="cls-1" d="m360.02,312.24c-2.57,0-4.83-.56-6.77-1.67-1.94-1.11-3.46-2.66-4.55-4.63-1.09-1.98-1.63-4.25-1.63-6.82,0-2.78.53-5.19,1.6-7.23s2.55-3.63,4.45-4.76c1.9-1.13,4.09-1.69,6.58-1.69,2.63,0,4.87.62,6.71,1.85,1.84,1.23,3.21,2.97,4.1,5.21s1.23,4.88,1.01,7.92h-5.62v-2.07c-.02-2.76-.5-4.77-1.46-6.04-.96-1.27-2.46-1.9-4.52-1.9-2.32,0-4.04.72-5.17,2.15s-1.69,3.53-1.69,6.29c0,2.57.56,4.56,1.69,5.97s2.78,2.12,4.94,2.12c1.4,0,2.6-.31,3.61-.93,1.01-.62,1.79-1.52,2.34-2.69l5.6,1.69c-.97,2.29-2.47,4.07-4.5,5.34-2.03,1.27-4.27,1.9-6.71,1.9Zm-8.75-11.83v-4.28h17.47v4.28h-17.47Z"/>
    <path class="cls-1" d="m386.31,312.27c-1.88,0-3.43-.31-4.66-.94-1.22-.63-2.2-1.43-2.92-2.4-.72-.97-1.25-2.01-1.6-3.1-.35-1.1-.57-2.14-.67-3.12-.1-.98-.15-1.78-.15-2.39v-14.18h5.74v12.23c0,.78.05,1.67.16,2.65.11.98.37,1.92.76,2.82.4.9,1,1.64,1.79,2.22s1.86.87,3.21.87c.72,0,1.43-.12,2.14-.35.71-.24,1.34-.64,1.92-1.21s1.03-1.36,1.38-2.36c.34-1,.52-2.27.52-3.81l3.36,1.43c0,2.16-.42,4.12-1.26,5.88s-2.07,3.16-3.7,4.2c-1.63,1.04-3.64,1.56-6.02,1.56Zm8.3-.73v-7.88h-.68v-17.52h5.69v25.4h-5.01Z"/>
    <path class="cls-1" d="m406.15,311.54v-25.4h5.01v7.88h.71v17.52h-5.71Zm15.31,0v-15.36c0-1.77-.43-3.15-1.29-4.14-.86-.99-2.04-1.48-3.53-1.48s-2.6.49-3.47,1.48c-.87.99-1.31,2.27-1.31,3.86l-2.54-1.69c0-1.65.41-3.13,1.22-4.44.81-1.32,1.92-2.36,3.3-3.12s2.94-1.14,4.67-1.14c1.9,0,3.48.4,4.76,1.21,1.28.81,2.23,1.91,2.87,3.29.63,1.39.95,2.95.95,4.69v16.84h-5.64Zm15.24,0v-15.43c0-1.74-.43-3.1-1.29-4.08-.86-.98-2.03-1.47-3.5-1.47-.91,0-1.72.21-2.45.62-.72.42-1.29,1.03-1.72,1.83-.42.81-.63,1.77-.63,2.88l-2.52-1.48c-.02-1.76.38-3.3,1.19-4.64.81-1.34,1.9-2.39,3.28-3.14,1.38-.75,2.92-1.13,4.61-1.13,2.81,0,4.96.84,6.46,2.53s2.25,3.9,2.25,6.64v16.86h-5.67Z"/>
  </g>
</svg>